<?xml version="1.0" standalone="no"?>
<!DOCTYPE svg PUBLIC "-//W3C//DTD SVG 20010904//EN"
 "http://www.w3.org/TR/2001/REC-SVG-20010904/DTD/svg10.dtd">
<svg version="1.0" xmlns="http://www.w3.org/2000/svg"
 width="190.000000pt" height="190.000000pt" viewBox="0 0 190.000000 190.000000"
 preserveAspectRatio="xMidYMid meet">
<metadata>
Created by potrace 1.14, written by Peter Selinger 2001-2017
</metadata>
<g transform="translate(0.000000,190.000000) scale(0.100000,-0.100000)"
fill="#000000" stroke="none">
<path d="M645 1503 c-256 -59 -439 -295 -436 -561 0 -42 7 -100 15 -128 l14
-52 -77 -83 c-42 -46 -95 -104 -118 -129 -46 -48 -54 -70 -25 -70 18 0 179
132 221 182 19 22 27 26 37 17 8 -6 14 -17 14 -25 0 -7 35 -49 78 -92 122
-126 267 -184 436 -176 153 7 271 59 381 169 163 163 206 363 128 607 -6 20
-20 17 292 78 143 28 269 55 280 61 20 9 -17 7 -85 -6 -38 -7 -248 -45 -307
-56 -120 -21 -169 -29 -184 -29 -10 0 -31 23 -49 50 -71 110 -210 209 -342
243 -72 19 -194 19 -273 0z m310 -48 c115 -38 203 -105 273 -208 36 -52 37
-51 -56 -62 -50 -6 -53 -5 -78 25 -31 36 -58 36 -86 0 -25 -34 -30 -87 -12
-122 18 -35 35 -28 25 10 -4 15 -5 38 -2 52 4 18 7 11 11 -25 7 -70 43 -74 78
-8 9 16 30 26 81 37 39 9 74 16 79 16 17 0 45 -116 48 -200 6 -159 -41 -275
-156 -390 -84 -84 -144 -120 -239 -145 -235 -60 -475 35 -603 241 l-26 40 34
40 c19 21 74 85 122 141 l87 102 67 16 c37 8 69 15 72 15 2 0 -2 -28 -11 -62
-21 -89 -24 -231 -7 -298 8 -30 27 -73 42 -94 30 -44 111 -101 124 -88 5 5 -7
35 -26 66 -65 108 -71 241 -21 456 2 8 4 20 4 26 1 6 36 21 79 33 72 21 112
43 112 62 0 14 -34 15 -101 4 l-66 -11 29 110 c68 269 27 261 -228 -41 -75
-88 -102 -113 -127 -118 -127 -25 -241 -84 -222 -115 7 -12 72 -8 134 7 31 8
24 -4 -58 -96 -56 -62 -66 -69 -75 -54 -15 27 -17 192 -2 254 48 210 222 368
451 412 54 11 177 -3 250 -28z m-231 -278 c-22 -57 -30 -67 -55 -72 -17 -4
-33 -5 -36 -2 -4 5 109 146 114 142 2 -1 -9 -31 -23 -68z"/>
</g>
</svg>
